HIERARCHY
ROOT Hips
{
	OFFSET 0.000000 83.214638 0.000000
	CHANNELS 6 Xposition Yposition Zposition Xrotation Yrotation Zrotation
	JOINT Pelvis
	{
		OFFSET 0.000000 0.000000 0.000000
		CHANNELS 3 Xrotation Yrotation Zrotation
		JOINT LeftUpLeg
		{
			OFFSET 8.479700 -4.795502 -0.379100
			CHANNELS 3 Xrotation Yrotation Zrotation
			JOINT LeftLeg
			{
				OFFSET 0.024144 -32.555107 0.112900
				CHANNELS 3 Xrotation Yrotation Zrotation
				JOINT LeftFoot
				{
					OFFSET -0.024144 -32.638630 -3.012600
					CHANNELS 3 Xrotation Yrotation Zrotation
					JOINT LeftToeBase
					{
						OFFSET 0.970200 -13.225400 11.864200
						CHANNELS 3 Xrotation Yrotation Zrotation
						End Site
						{
							OFFSET 0.000000 12.319262 0.000000
						}
					}
					JOINT LFootTongue
					{
						OFFSET 1.142400 -1.059800 6.665200
						CHANNELS 3 Xrotation Yrotation Zrotation
						End Site
						{
							OFFSET 0.000000 12.319262 0.000000
						}
					}
				}
				JOINT LeftPantLeg
				{
					OFFSET 0.918482 -16.533964 -2.284700
					CHANNELS 3 Xrotation Yrotation Zrotation
					End Site
					{
						OFFSET 0.350399 24.744368 0.000000
					}
				}
			}
		}
		JOINT RightUpLeg
		{
			OFFSET -8.479700 -4.795502 -0.379100
			CHANNELS 3 Xrotation Yrotation Zrotation
			JOINT RightLeg
			{
				OFFSET -0.023144 -32.555092 0.112900
				CHANNELS 3 Xrotation Yrotation Zrotation
				JOINT RightFoot
				{
					OFFSET 0.023144 -32.638641 -3.012700
					CHANNELS 3 Xrotation Yrotation Zrotation
					JOINT RightToeBase
					{
						OFFSET -0.970200 -13.225400 11.864200
						CHANNELS 3 Xrotation Yrotation Zrotation
						End Site
						{
							OFFSET 0.000000 12.319244 0.000000
						}
					}
					JOINT RFootTongue
					{
						OFFSET -1.142200 -1.059800 6.665200
						CHANNELS 3 Xrotation Yrotation Zrotation
						End Site
						{
							OFFSET 0.000000 12.319243 0.000000
						}
					}
				}
				JOINT RightPantLeg
				{
					OFFSET -0.919482 -16.533978 -2.284800
					CHANNELS 3 Xrotation Yrotation Zrotation
					End Site
					{
						OFFSET -0.350400 24.744419 0.000000
					}
				}
			}
		}
	}
	JOINT Spine
	{
		OFFSET 0.000000 7.722000 1.166200
		CHANNELS 3 Xrotation Yrotation Zrotation
		JOINT Spine1
		{
			OFFSET 0.000000 12.024101 0.248800
			CHANNELS 3 Xrotation Yrotation Zrotation
			JOINT Spine2
			{
				OFFSET 0.000000 11.502998 -0.491200
				CHANNELS 3 Xrotation Yrotation Zrotation
				JOINT Neck
				{
					OFFSET 0.000000 18.430702 -3.123100
					CHANNELS 3 Xrotation Yrotation Zrotation
					JOINT Head
					{
						OFFSET 0.000000 9.051102 1.034000
						CHANNELS 3 Xrotation Yrotation Zrotation
						JOINT HairB
						{
							OFFSET 0.208400 24.786102 24.822300
							CHANNELS 3 Xrotation Yrotation Zrotation
							End Site
							{
								OFFSET 0.000000 32.263779 0.000000
							}
						}
						JOINT HairA
						{
							OFFSET -7.081100 24.428299 23.196600
							CHANNELS 3 Xrotation Yrotation Zrotation
							End Site
							{
								OFFSET 0.000000 32.263779 0.000000
							}
						}
						JOINT Hat
						{
							OFFSET 16.728800 15.048294 -15.439601
							CHANNELS 3 Xrotation Yrotation Zrotation
							End Site
							{
								OFFSET 0.000000 32.263779 0.000000
							}
						}
					}
				}
				JOINT LeftShoulder
				{
					OFFSET 6.197800 13.665199 -4.064700
					CHANNELS 3 Xrotation Yrotation Zrotation
					JOINT LeftArm
					{
						OFFSET 7.778100 -0.187103 -1.709300
						CHANNELS 3 Xrotation Yrotation Zrotation
						JOINT LeftForeArm
						{
							OFFSET 22.049376 0.000000 0.000000
							CHANNELS 3 Xrotation Yrotation Zrotation
							JOINT LeftHand
							{
								OFFSET 23.009392 0.000000 0.000000
								CHANNELS 3 Xrotation Yrotation Zrotation
								JOINT LeftHandThumb1
								{
									OFFSET 3.507191 -2.063065 3.133727
									CHANNELS 3 Xrotation Yrotation Zrotation
									JOINT LeftHandThumb2
									{
										OFFSET 3.101337 -1.790558 1.790558
										CHANNELS 3 Xrotation Yrotation Zrotation
										JOINT LeftHandThumb3
										{
											OFFSET 3.058640 -1.765907 1.765906
											CHANNELS 3 Xrotation Yrotation Zrotation
											End Site
											{
												OFFSET -0.415260 3.926476 -0.049563
											}
										}
									}
								}
								JOINT LeftHandIndex1
								{
									OFFSET 11.334419 -0.901459 3.706815
									CHANNELS 3 Xrotation Yrotation Zrotation
									JOINT LeftHandIndex2
									{
										OFFSET 3.283112 0.000000 0.000000
										CHANNELS 3 Xrotation Yrotation Zrotation
										JOINT LeftHandIndex3
										{
											OFFSET 3.323853 0.000000 0.000000
											CHANNELS 3 Xrotation Yrotation Zrotation
											End Site
											{
												OFFSET -1.135597 3.097809 0.402452
											}
										}
									}
								}
								JOINT LeftHandMiddle1
								{
									OFFSET 11.335861 0.000000 0.000000
									CHANNELS 3 Xrotation Yrotation Zrotation
									JOINT LeftHandMiddle2
									{
										OFFSET 3.410492 0.000000 0.000000
										CHANNELS 3 Xrotation Yrotation Zrotation
										JOINT LeftHandMiddle3
										{
											OFFSET 3.312172 0.000000 0.000000
											CHANNELS 3 Xrotation Yrotation Zrotation
											End Site
											{
												OFFSET -1.150200 3.080154 0.400270
											}
										}
									}
								}
								JOINT LeftHandRing1
								{
									OFFSET 11.514786 -0.013176 -3.003090
									CHANNELS 3 Xrotation Yrotation Zrotation
									JOINT LeftHandRing2
									{
										OFFSET 3.053307 0.000000 0.000000
										CHANNELS 3 Xrotation Yrotation Zrotation
										JOINT LeftHandRing3
										{
											OFFSET 3.295807 0.000000 0.000000
											CHANNELS 3 Xrotation Yrotation Zrotation
											End Site
											{
												OFFSET -1.281006 3.013344 0.375733
											}
										}
									}
								}
								JOINT LeftHandPinky1
								{
									OFFSET 10.518692 -0.960396 -5.730441
									CHANNELS 3 Xrotation Yrotation Zrotation
									JOINT LeftHandPinky2
									{
										OFFSET 2.861649 0.000000 0.000000
										CHANNELS 3 Xrotation Yrotation Zrotation
										JOINT LeftHandPinky3
										{
											OFFSET 2.863380 0.000000 0.000000
											CHANNELS 3 Xrotation Yrotation Zrotation
											End Site
											{
												OFFSET -0.843597 2.711159 0.369971
											}
										}
									}
								}
							}
							JOINT LSleeve
							{
								OFFSET 6.676277 -0.344902 -1.011730
								CHANNELS 3 Xrotation Yrotation Zrotation
								End Site
								{
									OFFSET 0.000000 14.885353 0.000000
								}
							}
						}
					}
				}
				JOINT RightShoulder
				{
					OFFSET -6.197800 13.665199 -4.064700
					CHANNELS 3 Xrotation Yrotation Zrotation
					JOINT RightArm
					{
						OFFSET -7.778100 -0.187103 -1.709300
						CHANNELS 3 Xrotation Yrotation Zrotation
						JOINT RightForeArm
						{
							OFFSET -22.049376 0.000000 0.000000
							CHANNELS 3 Xrotation Yrotation Zrotation
							JOINT RightHand
							{
								OFFSET -23.009392 0.000000 0.000000
								CHANNELS 3 Xrotation Yrotation Zrotation
								JOINT RightHandThumb1
								{
									OFFSET -3.507191 -2.063065 3.133727
									CHANNELS 3 Xrotation Yrotation Zrotation
									JOINT RightHandThumb2
									{
										OFFSET -3.101337 -1.790558 1.790558
										CHANNELS 3 Xrotation Yrotation Zrotation
										JOINT RightHandThumb3
										{
											OFFSET -3.058640 -1.765907 1.765906
											CHANNELS 3 Xrotation Yrotation Zrotation
											End Site
											{
												OFFSET 0.415260 3.926476 -0.049563
											}
										}
									}
								}
								JOINT RightHandIndex1
								{
									OFFSET -11.334419 -0.901459 3.706815
									CHANNELS 3 Xrotation Yrotation Zrotation
									JOINT RightHandIndex2
									{
										OFFSET -3.283112 0.000000 0.000000
										CHANNELS 3 Xrotation Yrotation Zrotation
										JOINT RightHandIndex3
										{
											OFFSET -3.323853 0.000000 0.000000
											CHANNELS 3 Xrotation Yrotation Zrotation
											End Site
											{
												OFFSET 1.135597 3.097809 0.402452
											}
										}
									}
								}
								JOINT RightHandMiddle1
								{
									OFFSET -11.335861 0.000000 0.000000
									CHANNELS 3 Xrotation Yrotation Zrotation
									JOINT RightHandMiddle2
									{
										OFFSET -3.410492 0.000000 0.000000
										CHANNELS 3 Xrotation Yrotation Zrotation
										JOINT RightHandMiddle3
										{
											OFFSET -3.312172 0.000000 0.000000
											CHANNELS 3 Xrotation Yrotation Zrotation
											End Site
											{
												OFFSET 1.150200 3.080154 0.400270
											}
										}
									}
								}
								JOINT RightHandRing1
								{
									OFFSET -11.514786 -0.013176 -3.003090
									CHANNELS 3 Xrotation Yrotation Zrotation
									JOINT RightHandRing2
									{
										OFFSET -3.053307 0.000000 0.000000
										CHANNELS 3 Xrotation Yrotation Zrotation
										JOINT RightHandRing3
										{
											OFFSET -3.295807 0.000000 0.000000
											CHANNELS 3 Xrotation Yrotation Zrotation
											End Site
											{
												OFFSET 1.281006 3.013344 0.375733
											}
										}
									}
								}
								JOINT RightHandPinky1
								{
									OFFSET -10.518692 -0.960396 -5.730441
									CHANNELS 3 Xrotation Yrotation Zrotation
									JOINT RightHandPinky2
									{
										OFFSET -2.861649 0.000000 0.000000
										CHANNELS 3 Xrotation Yrotation Zrotation
										JOINT RightHandPinky3
										{
											OFFSET -2.863380 0.000000 0.000000
											CHANNELS 3 Xrotation Yrotation Zrotation
											End Site
											{
												OFFSET 0.843597 2.711159 0.369971
											}
										}
									}
								}
							}
							JOINT RSleeve
							{
								OFFSET -6.676277 -0.344902 -1.011730
								CHANNELS 3 Xrotation Yrotation Zrotation
								End Site
								{
									OFFSET 0.000000 14.885353 0.000000
								}
							}
						}
					}
				}
				JOINT Backpack
				{
					OFFSET 0.000000 -2.471497 36.677502
					CHANNELS 3 Xrotation Yrotation Zrotation
					End Site
					{
						OFFSET 0.000000 20.427315 0.000000
					}
				}
				JOINT Hood
				{
					OFFSET 0.000000 18.754097 -10.431000
					CHANNELS 3 Xrotation Yrotation Zrotation
					JOINT Hood1
					{
						OFFSET 0.000000 -5.011002 -7.685901
						CHANNELS 3 Xrotation Yrotation Zrotation
						End Site
						{
							OFFSET 0.000000 9.175140 0.000000
						}
					}
				}
				JOINT LHoodieString
				{
					OFFSET 5.250500 16.397697 3.089900
					CHANNELS 3 Xrotation Yrotation Zrotation
					JOINT LHoodieString1
					{
						OFFSET 0.257700 -6.364304 3.694600
						CHANNELS 3 Xrotation Yrotation Zrotation
						JOINT LHoodieString2
						{
							OFFSET 0.000000 -9.643799 2.679100
							CHANNELS 3 Xrotation Yrotation Zrotation
							End Site
							{
								OFFSET 0.000000 10.009018 0.000000
							}
						}
					}
				}
				JOINT RHoodieString
				{
					OFFSET -5.250500 16.397697 3.089900
					CHANNELS 3 Xrotation Yrotation Zrotation
					JOINT RHoodieString1
					{
						OFFSET -0.257700 -6.364304 3.694600
						CHANNELS 3 Xrotation Yrotation Zrotation
						JOINT RHoodieString2
						{
							OFFSET 0.000000 -9.643799 2.679100
							CHANNELS 3 Xrotation Yrotation Zrotation
							End Site
							{
								OFFSET 0.000000 10.009018 0.000000
							}
						}
					}
				}
			}
			JOINT LBackpack_Strap
			{
				OFFSET 15.223200 -7.719803 -6.610900
				CHANNELS 3 Xrotation Yrotation Zrotation
				End Site
				{
					OFFSET 0.000000 16.040596 0.000000
				}
			}
			JOINT RBackpack_Strap
			{
				OFFSET -15.223000 -7.719803 -6.610900
				CHANNELS 3 Xrotation Yrotation Zrotation
				End Site
				{
					OFFSET 0.000000 16.040596 0.000000
				}
			}
		}
	}
	JOINT BoyFacialAnim_Joint
	{
		OFFSET 1.000000 -82.208099 -1.550900
		CHANNELS 3 Xrotation Yrotation Zrotation
		End Site
		{
			OFFSET 0.000000 30.012791 0.000000
		}
	}
}
MOTION
Frames: 4
Frame Time: 0.016667
-0.258371 77.263336 0.131702 -6.087197 -43.035031 -4.015240 -0.000000 -0.000001 0.000000 -27.315947 5.665136 14.081960 33.889128 -14.133815 -0.508275 -4.059873 0.674719 -8.002456 -0.000000 -0.000002 -0.000000 -0.000000 -0.000002 -0.000000 -0.000001 0.000002 -0.000001 -4.361079 -13.661941 -15.699289 32.715780 -8.988091 -0.327975 -20.510592 -4.063779 17.097244 -0.000000 0.000001 -0.000000 -0.000000 0.000001 -0.000000 0.000002 0.000000 0.000001 5.834015 4.645108 -1.245726 11.836540 9.037615 -3.083968 11.836539 9.037618 -3.083969 -9.907368 -1.416035 0.452971 -0.529823 20.570691 -0.772812 0.000000 0.000000 0.000000 0.000000 0.000000 0.000000 0.000000 0.000000 0.000000 1.396585 -0.734469 -7.859327 -14.236645 2.407732 -63.256807 9.875220 -47.538349 5.912064 16.118534 0.922174 18.828774 9.163597 4.814106 -5.499028 -0.335367 0.032560 0.783686 0.000003 -0.000003 0.000002 -0.902015 -6.980981 -3.808430 0.033406 0.804271 -16.418979 -0.000003 -0.000000 -0.000004 1.947843 9.683077 -14.539801 -0.456437 -1.565404 -21.881020 0.000001 0.000000 0.000000 2.605887 14.896822 -31.345254 -0.576843 -2.712409 -32.011539 -0.000000 0.000001 -0.000000 4.170590 18.495020 -34.987326 -0.706796 -5.788630 -39.372929 0.000000 0.000002 -0.000002 0.000001 0.000001 -0.000001 1.410914 9.461490 9.792761 1.220059 -24.270696 60.532852 -6.660681 41.858418 8.043880 6.225206 12.322292 11.673242 -8.898179 -4.908921 -0.379246 7.904841 -19.192464 -2.856885 0.000000 0.000000 -0.000002 -1.085506 -1.215491 4.525255 0.142013 -1.115593 16.942607 0.000001 0.000001 0.000004 -0.668341 -2.904958 12.731521 -0.667286 1.816587 30.578774 0.000000 0.000003 -0.000001 2.423633 -7.404547 21.763283 -0.987205 3.763001 37.431213 -0.000001 -0.000000 -0.000001 3.480601 -10.053099 24.322307 -1.457038 7.871392 41.091965 -0.000003 -0.000002 -0.000000 0.000000 0.000001 -0.000002 0.000001 0.000000 0.000001 0.000001 0.000000 0.000001 0.000001 0.000000 0.000001 0.000001 0.000000 0.000001 0.000001 0.000000 -0.000000 0.000001 0.000000 -0.000000 0.000001 0.000000 0.000001 0.000001 0.000000 -0.000000 0.000001 0.000000 -0.000000 -0.000001 -0.000001 0.000000 -0.000001 -0.000001 0.000000 -0.000000 -0.000001 0.000000 
0.016960 76.997314 -0.128895 -4.948252 -43.809117 -3.257617 0.000000 -0.000001 0.000000 -28.967584 5.707801 14.320058 34.896290 -13.748215 -0.455797 -4.217472 0.719864 -8.065583 -0.000000 -0.000000 -0.000000 -0.000000 -0.000000 -0.000000 -0.000000 0.000001 0.000001 -6.322169 -11.387161 -15.329253 34.687498 -10.592727 -0.533438 -20.934029 -3.967420 17.706492 -0.000000 0.000001 -0.000000 -0.000000 0.000001 -0.000000 0.000001 -0.000002 0.000001 5.932509 4.554980 -1.209304 12.025235 8.854460 -2.993143 12.025232 8.854467 -2.993145 -10.777271 -0.439168 0.984889 -1.745465 21.729760 -1.808208 0.000000 -0.000000 -0.000000 0.000000 -0.000000 -0.000000 0.000000 -0.000000 -0.000000 0.965633 -1.032577 -7.966037 -15.103292 0.865216 -62.925112 10.783008 -44.898184 6.185689 16.918928 -0.292565 19.627081 9.349422 4.758721 -5.687995 -0.198638 0.325449 0.830091 0.000000 0.000002 -0.000007 -1.019744 -6.725077 -5.312750 -0.024098 0.621124 -18.002343 -0.000004 -0.000001 -0.000004 2.038144 9.433268 -15.807838 -0.518319 -1.712256 -23.341917 -0.000002 -0.000004 -0.000000 2.629704 14.587927 -32.393805 -0.622573 -2.782458 -33.387034 0.000001 -0.000002 0.000001 4.065110 18.024516 -36.188828 -0.726385 -5.810860 -40.750391 -0.000000 -0.000001 -0.000000 -0.000003 -0.000004 0.000003 0.953479 9.999497 9.272299 0.949927 -23.054617 60.574550 -5.823122 42.180827 7.329622 6.263652 12.051183 10.451375 -8.629385 -4.893353 -0.125871 7.913504 -19.223976 -2.860420 0.000000 -0.000001 -0.000002 -1.072004 -1.312171 5.663834 0.107979 -1.008041 18.067616 -0.000000 0.000000 0.000000 -0.667781 -2.883308 13.714686 -0.713125 1.892762 31.570999 -0.000002 -0.000000 -0.000002 2.379261 -7.310030 22.637173 -1.035007 3.824195 38.329458 -0.000001 -0.000000 0.000002 3.381074 -9.859272 25.095554 -1.498523 7.918852 41.906472 -0.000001 0.000001 0.000000 -0.000002 0.000000 -0.000001 -0.000002 0.000001 -0.000000 -0.000002 0.000001 -0.000000 -0.000002 0.000001 -0.000000 -0.000002 0.000001 -0.000000 -0.000002 0.000001 -0.000001 -0.000002 0.000001 -0.000000 -0.000002 0.000001 -0.000000 -0.000002 0.000001 -0.000001 -0.000002 0.000001 -0.000000 -0.000000 0.000001 -0.000000 -0.000000 0.000001 -0.000000 0.000000 -0.000001 0.000000 
0.485018 76.597488 -0.532940 -3.047871 -44.573391 -1.734999 -0.000000 -0.000000 0.000000 -31.472911 5.647375 14.272958 36.138999 -13.194923 -0.379163 -4.216308 0.756947 -8.140093 -0.000000 -0.000000 -0.000000 -0.000000 -0.000000 -0.000000 0.000000 0.000001 -0.000001 -9.555214 -8.835182 -15.231226 37.655690 -12.134966 -0.747634 -21.498929 -3.866021 18.368359 -0.000000 0.000001 -0.000000 -0.000000 0.000001 -0.000000 -0.000000 -0.000000 0.000001 6.036947 4.395797 -1.227184 12.224175 8.528403 -2.981040 12.224174 8.528398 -2.981035 -12.706017 0.665371 1.229649 -2.359374 22.874645 -2.642889 0.000001 -0.000000 0.000000 0.000001 -0.000000 0.000000 0.000001 -0.000000 0.000000 0.265565 -1.356433 -8.721384 -15.849135 -0.272494 -61.599113 11.914436 -42.970646 5.909686 17.937612 -1.587082 20.477093 9.860290 4.600708 -6.210170 0.178201 1.135718 0.954703 0.000001 -0.000001 0.000000 -1.259487 -6.014146 -9.465730 -0.209149 0.123944 -22.380645 0.000000 -0.000000 -0.000004 2.249203 8.742727 -19.308591 -0.708689 -2.109433 -27.382304 0.000001 -0.000001 0.000002 2.646804 13.741508 -35.282650 -0.757566 -2.970192 -37.190517 0.000002 0.000000 -0.000000 3.684858 16.759102 -39.492649 -0.783286 -5.869786 -44.559113 -0.000001 0.000003 0.000000 0.000003 0.000001 0.000001 0.311091 10.730827 8.924904 0.830492 -21.973977 60.244563 -4.994668 43.080018 7.063698 6.221346 11.810336 8.625577 -7.878578 -4.840425 0.584302 7.937780 -19.312203 -2.870378 0.000001 0.000001 -0.000002 -1.004371 -1.581462 8.851891 0.001595 -0.710717 21.217815 0.000000 0.000000 0.000000 -0.662319 -2.824125 16.467586 -0.848398 2.101718 34.349773 -0.000001 0.000000 0.000002 2.247684 -7.051090 25.083648 -1.173861 3.991412 40.845143 -0.000002 -0.000001 0.000000 3.080887 -9.327113 27.258566 -1.618328 8.048602 44.187782 -0.000002 0.000000 0.000000 -0.000001 0.000000 -0.000002 -0.000001 -0.000001 -0.000000 -0.000001 -0.000001 -0.000000 -0.000001 -0.000001 -0.000000 -0.000001 -0.000001 -0.000000 -0.000001 -0.000001 -0.000000 -0.000002 -0.000000 0.000000 -0.000001 -0.000001 -0.000000 -0.000001 -0.000001 -0.000000 -0.000002 -0.000000 0.000000 0.000001 -0.000000 -0.000000 0.000001 -0.000000 -0.000000 -0.000000 -0.000000 0.000000 
1.044683 76.119232 -1.012896 -0.810107 -45.332266 0.106270 0.000000 0.000000 0.000000 -34.347242 5.487714 14.164054 37.512908 -12.521413 -0.292466 -4.150907 0.806538 -8.256271 -0.000000 -0.000000 -0.000000 -0.000000 -0.000000 0.000000 -0.000000 -0.000001 -0.000000 -13.381262 -6.808447 -15.397155 40.844121 -12.968195 -0.872007 -22.080842 -3.693124 18.858955 0.000000 0.000002 -0.000000 0.000000 0.000002 -0.000000 -0.000000 0.000002 -0.000000 6.164402 4.205649 -1.281068 12.470200 8.138656 -3.034280 12.470209 8.138642 -3.034275 -14.888607 1.797578 1.647219 -2.987668 24.094361 -3.539503 0.000001 0.000000 -0.000000 0.000001 0.000000 -0.000000 0.000001 0.000000 -0.000000 -0.375969 -1.611365 -9.419200 -16.940404 -1.632610 -60.270457 12.892824 -40.769061 5.492833 19.195895 -3.354572 21.651918 10.623819 4.348451 -6.998080 0.744562 2.361283 1.132674 -0.000001 0.000001 -0.000004 -1.386180 -4.956145 -15.725915 -0.554559 -0.599286 -28.997971 -0.000001 -0.000002 -0.000004 2.463015 7.707555 -24.585478 -1.048245 -2.681546 -33.490497 0.000001 0.000001 0.000000 2.540740 12.492704 -39.622549 -0.984462 -3.235774 -42.938295 0.000000 0.000002 -0.000000 2.877049 14.964181 -44.444471 -0.876360 -5.951358 -50.313414 -0.000000 0.000001 -0.000003 0.000002 0.000003 -0.000000 -0.442262 11.779069 8.775497 0.563405 -20.903029 59.747947 -4.165705 43.767770 6.786829 6.490508 12.058531 6.153606 -6.731242 -4.732394 1.676343 7.975059 -19.447671 -2.885697 -0.000000 0.000001 0.000001 -0.815436 -1.983362 13.748235 -0.192959 -0.266695 26.056468 -0.000000 0.000003 0.000002 -0.642468 -2.735975 20.695272 -1.075438 2.409172 38.618982 -0.000000 -0.000001 0.000005 2.025500 -6.670634 28.840242 -1.401011 4.235908 44.710336 -0.000002 -0.000002 -0.000002 2.559863 -8.543085 30.575321 -1.812412 8.238334 47.693176 0.000001 -0.000000 0.000002 -0.000001 0.000001 -0.000000 -0.000000 -0.000001 0.000000 -0.000000 -0.000001 0.000000 -0.000000 -0.000001 0.000000 -0.000000 -0.000001 0.000000 -0.000000 -0.000001 0.000000 -0.000002 -0.000001 0.000000 -0.000000 -0.000001 0.000000 -0.000000 -0.000001 0.000000 -0.000002 -0.000001 0.000000 0.000002 -0.000002 0.000000 0.000002 -0.000002 0.000000 0.000000 0.000000 0.000000 
